<svg width="369" height="246" viewBox="0 0 369 246" fill="none" xmlns="http://www.w3.org/2000/svg">
<g clip-path="url(#clip0)">
<path d="M142.536 40.68H154.272C160.176 40.68 164.496 41.904 167.232 44.352C170.016 46.752 171.408 50.688 171.408 56.16C171.408 63.648 169.008 68.184 164.208 69.768L172.488 99H164.64L157.008 71.64H150.672V99H142.536V40.68ZM153.768 65.808C157.272 65.808 159.768 65.112 161.256 63.72C162.792 62.328 163.56 59.808 163.56 56.16C163.56 53.76 163.296 51.888 162.768 50.544C162.24 49.152 161.304 48.144 159.96 47.52C158.616 46.848 156.72 46.512 154.272 46.512H150.672V65.808H153.768ZM179.872 40.68H202.48V46.728H188.008V66.024H199.744V71.784H188.008V93.168H202.624V99H179.872V40.68ZM223.088 99.72C217.808 99.72 213.992 98.064 211.64 94.752C209.288 91.392 208.112 86.424 208.112 79.848V60.336C208.112 55.824 208.568 52.128 209.48 49.248C210.44 46.32 212.048 44.088 214.304 42.552C216.608 40.968 219.752 40.176 223.736 40.176C229.112 40.176 232.976 41.544 235.328 44.28C237.728 47.016 238.928 51.312 238.928 57.168V59.328H231.296V57.528C231.296 54.744 231.128 52.608 230.792 51.12C230.456 49.584 229.736 48.432 228.632 47.664C227.576 46.896 225.992 46.512 223.88 46.512C221.624 46.512 219.944 47.04 218.84 48.096C217.736 49.104 217.016 50.472 216.68 52.2C216.392 53.928 216.248 56.232 216.248 59.112V80.712C216.248 85.176 216.776 88.392 217.832 90.36C218.936 92.28 221.024 93.24 224.096 93.24C227.12 93.24 229.184 92.184 230.288 90.072C231.44 87.96 232.016 84.576 232.016 79.92V75.888H224.6V70.128H239.36V99H234.248L233.456 92.304C231.632 97.248 228.176 99.72 223.088 99.72ZM262.628 99.648C256.916 99.648 252.812 98.04 250.316 94.824C247.868 91.56 246.644 86.856 246.644 80.712V58.608C246.644 52.56 247.892 47.976 250.388 44.856C252.884 41.736 256.964 40.176 262.628 40.176C268.292 40.176 272.348 41.76 274.796 44.928C277.292 48.048 278.54 52.608 278.54 58.608V80.784C278.54 86.832 277.292 91.488 274.796 94.752C272.3 98.016 268.244 99.648 262.628 99.648ZM262.628 93.24C265.652 93.24 267.692 92.352 268.748 90.576C269.804 88.8 270.332 86.112 270.332 82.512V56.952C270.332 53.4 269.804 50.784 268.748 49.104C267.692 47.376 265.652 46.512 262.628 46.512C259.556 46.512 257.492 47.376 256.436 49.104C255.38 50.784 254.852 53.4 254.852 56.952V82.512C254.852 86.112 255.38 88.8 256.436 90.576C257.492 92.352 259.556 93.24 262.628 93.24ZM286.536 40.68H298.272C304.176 40.68 308.496 41.904 311.232 44.352C314.016 46.752 315.408 50.688 315.408 56.16C315.408 63.648 313.008 68.184 308.208 69.768L316.488 99H308.64L301.008 71.64H294.672V99H286.536V40.68ZM297.768 65.808C301.272 65.808 303.768 65.112 305.256 63.72C306.792 62.328 307.56 59.808 307.56 56.16C307.56 53.76 307.296 51.888 306.768 50.544C306.24 49.152 305.304 48.144 303.96 47.52C302.616 46.848 300.72 46.512 298.272 46.512H294.672V65.808H297.768ZM332.8 78.408L320.2 40.68H327.76L336.688 68.832L345.472 40.68H353.104L340.576 78.408V99H332.8V78.408Z" fill="black"/>
<circle cx="80.5" cy="71.5" r="57.5" fill="#E70303"/>
<path d="M79.0589 100.864C73.2989 100.864 69.1949 99.112 66.7469 95.608C64.2989 92.104 63.0749 87.136 63.0749 80.704V61.12C63.0749 54.544 64.3949 49.528 67.0349 46.072C69.7229 42.616 74.2349 40.888 80.5709 40.888C86.6669 40.888 91.0349 42.376 93.6749 45.352C96.3149 48.328 97.6349 52.528 97.6349 57.952V61.696H85.0349V56.944C85.0349 54.64 84.7709 52.912 84.2429 51.76C83.7149 50.56 82.5389 49.96 80.7149 49.96C78.8429 49.96 77.6189 50.608 77.0429 51.904C76.5149 53.2 76.2509 55 76.2509 57.304V84.304C76.2509 86.608 76.5869 88.432 77.2589 89.776C77.9789 91.072 79.2509 91.72 81.0749 91.72C84.4349 91.72 86.1149 89.2 86.1149 84.16V77.32H80.8589V69.76H97.7069V100H89.2109L88.4909 95.176C86.6669 98.968 83.5229 100.864 79.0589 100.864Z" fill="white"/>
</g>
<path d="M211.968 151.68H219.96V210H211.968V151.68ZM244.011 210.648C238.251 210.648 234.195 208.944 231.843 205.536C229.491 202.08 228.315 197.328 228.315 191.28V170.688C228.315 164.304 229.467 159.456 231.771 156.144C234.075 152.832 238.155 151.176 244.011 151.176C249.243 151.176 252.987 152.592 255.243 155.424C257.547 158.256 258.699 162.432 258.699 167.952V172.56H250.995V168.456C250.995 165.768 250.875 163.704 250.635 162.264C250.395 160.824 249.771 159.672 248.763 158.808C247.803 157.944 246.243 157.512 244.083 157.512C241.875 157.512 240.219 157.992 239.115 158.952C238.059 159.864 237.363 161.16 237.027 162.84C236.691 164.472 236.523 166.68 236.523 169.464V192.576C236.523 195.552 236.763 197.88 237.243 199.56C237.723 201.24 238.491 202.44 239.547 203.16C240.651 203.88 242.163 204.24 244.083 204.24C246.147 204.24 247.683 203.784 248.691 202.872C249.699 201.96 250.323 200.712 250.563 199.128C250.851 197.544 250.995 195.384 250.995 192.648V188.328H258.699V192.648C258.699 198.456 257.595 202.92 255.387 206.04C253.227 209.112 249.435 210.648 244.011 210.648ZM266.45 151.68H289.058V157.728H274.586V177.024H286.322V182.784H274.586V204.168H289.202V210H266.45V151.68ZM295.77 151.68H301.314L317.874 190.416V151.68H324.642V210H319.458L302.682 170.184V210H295.77V151.68ZM340.217 157.728H330.353V151.68H357.929V157.728H348.353V210H340.217V157.728Z" fill="black"/>
<circle cx="149.5" cy="181.5" r="57.5" fill="#E70303"/>
<path d="M134.135 151.68H145.151L151.415 191.28L157.247 151.68H168.911L158.255 210H144.647L134.135 151.68Z" fill="white"/>
<defs>
<clipPath id="clip0">
<rect width="354" height="129" fill="white"/>
</clipPath>
</defs>
</svg>
